<?xml version="1.0" encoding="UTF-8"?>
<!DOCTYPE svg PUBLIC "-//W3C//DTD SVG 1.1//EN" "http://www.w3.org/Graphics/SVG/1.1/DTD/svg11.dtd">
<svg xmlns="http://www.w3.org/2000/svg" version="1.1" width="2400px" height="1510px" style="shape-rendering:geometricPrecision; text-rendering:geometricPrecision; image-rendering:optimizeQuality; fill-rule:evenodd; clip-rule:evenodd" xmlns:xlink="http://www.w3.org/1999/xlink">
<g><path style="opacity:0.994" fill="#00acec" d="M 217.5,15.5 C 276.309,15.0042 334.976,15.5042 393.5,17C 363.346,227.081 333.846,437.248 305,647.5C 341.309,560.901 377.809,474.401 414.5,388C 468.166,387.5 521.832,387.333 575.5,387.5C 526.238,507.364 476.404,627.031 426,746.5C 437.464,890.931 449.464,1035.26 462,1179.5C 406,1180.83 350,1180.83 294,1179.5C 284.241,1086.33 273.907,993.333 263,900.5C 245.588,993.558 227.922,1086.56 210,1179.5C 151.571,1180.5 93.0714,1180.83 34.5,1180.5C 95.2219,792.112 156.222,403.779 217.5,15.5 Z"/></g>
<g><path style="opacity:0.994" fill="#00acec" d="M 657.5,381.5 C 708.405,381.169 759.238,381.503 810,382.5C 821.543,500.262 833.543,617.929 846,735.5C 867.9,617.499 889.734,499.499 911.5,381.5C 962.833,381.5 1014.17,381.5 1065.5,381.5C 1015.99,647.548 966.157,913.548 916,1179.5C 862.572,1180.5 809.072,1180.83 755.5,1180.5C 746.667,1060.84 737.834,941.173 729,821.5C 706.068,941.09 683.568,1060.76 661.5,1180.5C 610.167,1180.5 558.833,1180.5 507.5,1180.5C 556.992,914.04 606.992,647.706 657.5,381.5 Z"/></g>
<g><path style="opacity:0.994" fill="#00acec" d="M 1209.5,381.5 C 1287.97,381.003 1366.31,381.503 1444.5,383C 1425.38,648.785 1406.38,914.618 1387.5,1180.5C 1331.5,1180.5 1275.5,1180.5 1219.5,1180.5C 1225.42,1132.15 1231.42,1083.82 1237.5,1035.5C 1216.26,1035.17 1195.09,1035.51 1174,1036.5C 1161.55,1084.47 1148.72,1132.3 1135.5,1180C 1074.69,1181 1014.02,1180.66 953.5,1179C 1039.14,913.253 1124.47,647.42 1209.5,381.5 Z M 1291.5,569.5 C 1292.14,570.097 1292.47,570.93 1292.5,572C 1278.88,678.936 1267.38,786.103 1258,893.5C 1238.23,894.825 1218.4,894.825 1198.5,893.5C 1226.7,784.678 1257.7,676.678 1291.5,569.5 Z"/></g>
<g><path style="opacity:0.995" fill="#00acec" d="M 1583.5,381.5 C 1644.83,381.5 1706.17,381.5 1767.5,381.5C 1727.89,590.737 1688.72,800.07 1650,1009.5C 1647.78,1022.76 1647.11,1036.09 1648,1049.5C 1650.98,1057.13 1656.65,1060.79 1665,1060.5C 1680.02,1058.82 1689.52,1050.65 1693.5,1036C 1696.06,1028.28 1698.22,1020.44 1700,1012.5C 1740.31,802.625 1779.98,592.625 1819,382.5C 1879.76,381.502 1940.6,381.169 2001.5,381.5C 1965.53,574.189 1929.36,766.856 1893,959.5C 1886.96,993.332 1877.96,1026.33 1866,1058.5C 1845.14,1101.36 1814.97,1136.2 1775.5,1163C 1722.81,1192.62 1666.48,1202.95 1606.5,1194C 1562.87,1187.94 1526.04,1169.11 1496,1137.5C 1472.27,1103.24 1462.6,1065.24 1467,1023.5C 1470.02,999.402 1473.68,975.402 1478,951.5C 1513.06,761.467 1548.23,571.467 1583.5,381.5 Z"/></g>
<g><path style="opacity:0.995" fill="#00acec" d="M 2064.5,381.5 C 2164.5,381.5 2264.5,381.5 2364.5,381.5C 2354.99,434.883 2345.16,488.216 2335,541.5C 2294.57,542.497 2254.07,542.83 2213.5,542.5C 2204.42,592.216 2195.09,641.882 2185.5,691.5C 2221.83,692.167 2258.17,692.833 2294.5,693.5C 2285.24,743.452 2276.24,793.452 2267.5,843.5C 2231.17,843.5 2194.83,843.5 2158.5,843.5C 2119.83,1061.5 2081.17,1279.5 2042.5,1497.5C 1983.17,1497.5 1923.83,1497.5 1864.5,1497.5C 1930.78,1125.44 1997.45,753.437 2064.5,381.5 Z"/></g>
</svg>
