<?xml version="1.0" encoding="UTF-8"?>
<!DOCTYPE svg PUBLIC "-//W3C//DTD SVG 1.1//EN" "http://www.w3.org/Graphics/SVG/1.1/DTD/svg11.dtd">
<svg xmlns="http://www.w3.org/2000/svg" version="1.1" width="2000px" height="1250px" style="shape-rendering:geometricPrecision; text-rendering:geometricPrecision; image-rendering:optimizeQuality; fill-rule:evenodd; clip-rule:evenodd" xmlns:xlink="http://www.w3.org/1999/xlink">
<g><path style="opacity:0.996" fill="#808db9" d="M 1067.5,455.5 C 1067.5,455.833 1067.5,456.167 1067.5,456.5C 1054.47,456.244 1041.47,456.577 1028.5,457.5C 1029.26,456.732 1030.26,456.232 1031.5,456C 1043.5,455.5 1055.5,455.333 1067.5,455.5 Z"/></g>
<g><path style="opacity:0.141" fill="#b3bbd6" d="M 1067.5,456.5 C 1067.5,456.167 1067.5,455.833 1067.5,455.5C 1071.85,455.334 1076.18,455.501 1080.5,456C 1081.42,456.278 1082.08,456.778 1082.5,457.5C 1077.55,456.671 1072.55,456.337 1067.5,456.5 Z"/></g>
<g><path style="opacity:0.996" fill="#8d98c0" d="M 1274.5,457.5 C 1256.46,455.961 1238.46,456.294 1220.5,458.5C 1222.81,456.932 1225.48,456.098 1228.5,456C 1242.5,455.333 1256.5,455.333 1270.5,456C 1272.06,456.21 1273.39,456.71 1274.5,457.5 Z"/></g>
<g><path style="opacity:1" fill="#33478e" d="M 1067.5,456.5 C 1072.55,456.337 1077.55,456.671 1082.5,457.5C 1084.02,457.511 1085.18,458.177 1086,459.5C 1093.1,475.456 1098.6,491.956 1102.5,509C 1102.51,510.812 1101.84,512.312 1100.5,513.5C 1088.57,515.873 1076.57,516.04 1064.5,514C 1062.75,513.529 1061.09,512.862 1059.5,512C 1051.94,502.375 1045.28,492.208 1039.5,481.5C 1039.57,479.973 1038.91,478.973 1037.5,478.5C 1035.08,473.999 1032.42,469.666 1029.5,465.5C 1028.61,462.946 1028.28,460.279 1028.5,457.5C 1041.47,456.577 1054.47,456.244 1067.5,456.5 Z"/></g>
<g><path style="opacity:1" fill="#2f458c" d="M 1184.5,471.5 C 1184.48,476.297 1183.81,480.964 1182.5,485.5C 1180.78,487.78 1180.11,490.447 1180.5,493.5C 1178.84,495.438 1178.17,497.772 1178.5,500.5C 1177.84,504.313 1176.67,507.979 1175,511.5C 1174.18,512.823 1173.02,513.489 1171.5,513.5C 1159.47,513.725 1147.47,513.392 1135.5,512.5C 1135.03,511.094 1134.03,510.427 1132.5,510.5C 1129.46,507.94 1127.63,504.607 1127,500.5C 1125.84,495.543 1125.01,490.543 1124.5,485.5C 1124.83,482.772 1124.16,480.438 1122.5,478.5C 1120.72,475.495 1119.72,472.162 1119.5,468.5C 1119.5,465.167 1119.5,461.833 1119.5,458.5C 1121.48,458.005 1123.48,457.505 1125.5,457C 1145.17,456.459 1164.84,456.626 1184.5,457.5C 1184.5,462.167 1184.5,466.833 1184.5,471.5 Z"/></g>
<g><path style="opacity:1" fill="#31468d" d="M 1274.5,457.5 C 1278.77,459.316 1279.61,462.316 1277,466.5C 1266.3,482.678 1255.47,498.678 1244.5,514.5C 1231.17,514.5 1217.83,514.5 1204.5,514.5C 1204.5,512.833 1204.5,511.167 1204.5,509.5C 1205.81,497.927 1208.81,486.927 1213.5,476.5C 1214.91,476.027 1215.57,475.027 1215.5,473.5C 1216.14,470.544 1216.64,467.544 1217,464.5C 1217.42,461.975 1218.59,459.975 1220.5,458.5C 1238.46,456.294 1256.46,455.961 1274.5,457.5 Z"/></g>
<g><path style="opacity:0.322" fill="#a4adcd" d="M 1184.5,471.5 C 1184.5,466.833 1184.5,462.167 1184.5,457.5C 1164.84,456.626 1145.17,456.459 1125.5,457C 1123.48,457.505 1121.48,458.005 1119.5,458.5C 1120.68,456.933 1122.35,456.099 1124.5,456C 1145.12,455.435 1165.45,455.601 1185.5,456.5C 1185.82,461.695 1185.49,466.695 1184.5,471.5 Z"/></g>
<g><path style="opacity:1" fill="#8c96c0" d="M 1028.5,457.5 C 1028.28,460.279 1028.61,462.946 1029.5,465.5C 1027.78,464.426 1026.78,462.759 1026.5,460.5C 1026.94,459.261 1027.61,458.261 1028.5,457.5 Z"/></g>
<g><path style="opacity:0.675" fill="#7380b2" d="M 1119.5,458.5 C 1119.5,461.833 1119.5,465.167 1119.5,468.5C 1118.73,466.316 1118.07,463.982 1117.5,461.5C 1117.94,460.261 1118.61,459.261 1119.5,458.5 Z"/></g>
<g><path style="opacity:0.502" fill="#8c97c0" d="M 1215.5,473.5 C 1215.57,475.027 1214.91,476.027 1213.5,476.5C 1213.43,474.973 1214.09,473.973 1215.5,473.5 Z"/></g>
<g><path style="opacity:0.141" fill="#bcc3db" d="M 1037.5,478.5 C 1038.91,478.973 1039.57,479.973 1039.5,481.5C 1038.09,481.027 1037.43,480.027 1037.5,478.5 Z"/></g>
<g><path style="opacity:0.675" fill="#7783b4" d="M 1122.5,478.5 C 1124.16,480.438 1124.83,482.772 1124.5,485.5C 1123.39,483.401 1122.72,481.067 1122.5,478.5 Z"/></g>
<g><path style="opacity:0.502" fill="#8792bd" d="M 1182.5,485.5 C 1182.2,488.373 1181.53,491.039 1180.5,493.5C 1180.11,490.447 1180.78,487.78 1182.5,485.5 Z"/></g>
<g><path style="opacity:0.675" fill="#7783b4" d="M 1180.5,493.5 C 1180.28,496.067 1179.61,498.401 1178.5,500.5C 1178.17,497.772 1178.84,495.438 1180.5,493.5 Z"/></g>
<g><path style="opacity:0.322" fill="#9da6c9" d="M 1132.5,510.5 C 1134.03,510.427 1135.03,511.094 1135.5,512.5C 1133.97,512.573 1132.97,511.906 1132.5,510.5 Z"/></g>
<g><path style="opacity:1" fill="#848fbb" d="M 1135.5,512.5 C 1147.47,513.392 1159.47,513.725 1171.5,513.5C 1167.08,514.912 1162.41,515.579 1157.5,515.5C 1151.15,515.15 1144.82,514.65 1138.5,514C 1137.26,513.768 1136.26,513.268 1135.5,512.5 Z"/></g>
<g><path style="opacity:0.141" fill="#c7cde1" d="M 1204.5,509.5 C 1204.5,511.167 1204.5,512.833 1204.5,514.5C 1217.83,514.5 1231.17,514.5 1244.5,514.5C 1231.01,515.496 1217.34,515.829 1203.5,515.5C 1203.21,513.265 1203.54,511.265 1204.5,509.5 Z"/></g>
<g><path style="opacity:1" fill="#7d89b7" d="M 598.5,550.5 C 598.5,550.833 598.5,551.167 598.5,551.5C 544.833,551.5 491.167,551.5 437.5,551.5C 446.235,550.821 455.068,550.154 464,549.5C 508.698,549.172 553.531,549.506 598.5,550.5 Z"/></g>
<g><path style="opacity:0.996" fill="#939ec4" d="M 617.5,551.5 C 615.5,551.5 613.5,551.5 611.5,551.5C 607.167,551.5 602.833,551.5 598.5,551.5C 598.5,551.167 598.5,550.833 598.5,550.5C 598.435,550.062 598.601,549.728 599,549.5C 605.266,550.149 611.433,550.815 617.5,551.5 Z"/></g>
<g><path style="opacity:0.996" fill="#8e99c1" d="M 723.5,551.5 C 710.163,551.333 696.829,551.5 683.5,552C 681.846,552.608 680.179,553.108 678.5,553.5C 679.058,552.21 680.058,551.377 681.5,551C 695.673,550.173 709.673,550.339 723.5,551.5 Z"/></g>
<g><path style="opacity:0.996" fill="#939ec4" d="M 1021.5,550.5 C 1019.05,551.473 1016.39,551.806 1013.5,551.5C 1015.89,550.79 1018.39,550.123 1021,549.5C 1021.4,549.728 1021.57,550.062 1021.5,550.5 Z"/></g>
<g><path style="opacity:0.996" fill="#8c98c0" d="M 1452.5,550.5 C 1452.5,550.833 1452.5,551.167 1452.5,551.5C 1439.17,551.5 1425.83,551.5 1412.5,551.5C 1425.24,550.825 1438.07,550.158 1451,549.5C 1451.38,550.056 1451.88,550.389 1452.5,550.5 Z"/></g>
<g><path style="opacity:1" fill="#7984b5" d="M 1548.5,550.5 C 1548.5,550.833 1548.5,551.167 1548.5,551.5C 1516.5,551.5 1484.5,551.5 1452.5,551.5C 1452.5,551.167 1452.5,550.833 1452.5,550.5C 1484.4,549.172 1516.4,549.172 1548.5,550.5 Z"/></g>
<g><path style="opacity:0.996" fill="#909cc2" d="M 1590.5,551.5 C 1576.5,551.5 1562.5,551.5 1548.5,551.5C 1548.5,551.167 1548.5,550.833 1548.5,550.5C 1548.43,550.062 1548.6,549.728 1549,549.5C 1562.93,550.159 1576.76,550.825 1590.5,551.5 Z"/></g>
<g><path style="opacity:1" fill="#808bb9" d="M 1880.5,551.5 C 1820.83,551.5 1761.17,551.5 1701.5,551.5C 1710.23,550.821 1719.07,550.154 1728,549.5C 1770.67,549.5 1813.33,549.5 1856,549.5C 1864.27,550.153 1872.43,550.82 1880.5,551.5 Z"/></g>
<g><path style="opacity:0.996" fill="#8895be" d="M 113.5,551.5 C 113.5,551.833 113.5,552.167 113.5,552.5C 108.463,552.413 103.463,552.746 98.5,553.5C 98.9175,552.778 99.5842,552.278 100.5,552C 104.753,551.8 108.92,551.3 113,550.5C 113.399,550.728 113.565,551.062 113.5,551.5 Z"/></g>
<g><path style="opacity:1" fill="#7d88b7" d="M 305.5,552.5 C 241.5,552.5 177.5,552.5 113.5,552.5C 113.5,552.167 113.5,551.833 113.5,551.5C 140.096,550.838 166.762,550.504 193.5,550.5C 231.013,550.305 268.346,550.972 305.5,552.5 Z"/></g>
<g><path style="opacity:1" fill="#2e448c" d="M 437.5,551.5 C 491.167,551.5 544.833,551.5 598.5,551.5C 602.833,551.5 607.167,551.5 611.5,551.5C 615.618,552.709 619.951,553.376 624.5,553.5C 625.147,554.274 625.48,555.274 625.5,556.5C 623.568,567.906 620.568,578.906 616.5,589.5C 608.981,589.175 601.648,589.508 594.5,590.5C 542.982,590.36 491.649,591.36 440.5,593.5C 439.205,594.488 437.872,595.488 436.5,596.5C 434.738,597.262 433.738,598.596 433.5,600.5C 431.539,602.963 429.372,605.297 427,607.5C 426.132,641.849 426.465,676.182 428,710.5C 429.28,719.605 434.113,725.939 442.5,729.5C 442.918,730.222 443.584,730.722 444.5,731C 447.146,731.497 449.813,731.664 452.5,731.5C 456.702,731.183 460.702,731.517 464.5,732.5C 504.33,733.499 544.33,733.832 584.5,733.5C 590.979,734.491 597.646,734.824 604.5,734.5C 611.372,733.909 616.872,736.243 621,741.5C 624.627,750.974 626.46,760.641 626.5,770.5C 598.546,771.684 570.546,772.351 542.5,772.5C 527.342,771.504 512.009,771.17 496.5,771.5C 471.479,771.551 446.479,770.884 421.5,769.5C 418.759,769.293 416.426,768.293 414.5,766.5C 412.898,764.926 410.898,764.259 408.5,764.5C 406.973,764.573 405.973,763.906 405.5,762.5C 405.027,761.094 404.027,760.427 402.5,760.5C 396.744,756.08 392.078,750.747 388.5,744.5C 388.573,742.973 387.906,741.973 386.5,741.5C 385.599,740.71 384.932,739.71 384.5,738.5C 384.727,735.562 383.727,733.229 381.5,731.5C 380.549,730.081 380.216,728.415 380.5,726.5C 379.249,682.829 379.249,639.163 380.5,595.5C 381.645,588.214 384.645,581.881 389.5,576.5C 393.5,573.167 397.167,569.5 400.5,565.5C 402.404,565.262 403.738,564.262 404.5,562.5C 406.336,560.412 408.669,559.079 411.5,558.5C 416.144,557.401 420.478,555.734 424.5,553.5C 428.567,551.946 432.9,551.28 437.5,551.5 Z"/></g>
<g><path style="opacity:1" fill="#6371a8" d="M 611.5,551.5 C 613.5,551.5 615.5,551.5 617.5,551.5C 620.228,551.171 622.562,551.837 624.5,553.5C 619.951,553.376 615.618,552.709 611.5,551.5 Z"/></g>
<g><path style="opacity:1" fill="#2f458c" d="M 723.5,551.5 C 724.268,552.263 724.768,553.263 725,554.5C 725.833,576.494 726.333,598.494 726.5,620.5C 726.5,625.833 726.5,631.167 726.5,636.5C 746.5,636.5 766.5,636.5 786.5,636.5C 814.167,637.833 841.833,637.833 869.5,636.5C 877.507,636.666 885.507,636.5 893.5,636C 895.058,635.79 896.391,635.29 897.5,634.5C 899.465,632.232 900.632,629.565 901,626.5C 902.02,602.165 902.853,577.832 903.5,553.5C 917.5,553.5 931.5,553.5 945.5,553.5C 945.167,626.002 945.501,698.335 946.5,770.5C 946.5,770.833 946.5,771.167 946.5,771.5C 931.83,771.722 917.164,772.056 902.5,772.5C 901.95,743.635 901.117,714.635 900,685.5C 899.727,683.671 898.893,682.171 897.5,681C 892.816,680.565 888.149,680.065 883.5,679.5C 860.339,678.502 837.006,678.169 813.5,678.5C 833.996,677.668 854.663,677.168 875.5,677C 824.611,676.294 775.277,676.794 727.5,678.5C 726.833,678.5 726.5,678.833 726.5,679.5C 726.5,685.167 726.5,690.833 726.5,696.5C 726.425,721.863 725.758,747.197 724.5,772.5C 708.991,772.83 693.658,772.496 678.5,771.5C 678.5,698.833 678.5,626.167 678.5,553.5C 680.179,553.108 681.846,552.608 683.5,552C 696.829,551.5 710.163,551.333 723.5,551.5 Z"/></g>
<g><path style="opacity:1" fill="#8b95bf" d="M 946.5,771.5 C 946.5,771.167 946.5,770.833 946.5,770.5C 946.5,697.833 946.5,625.167 946.5,552.5C 932.167,552.5 917.833,552.5 903.5,552.5C 903.611,551.883 903.944,551.383 904.5,551C 918.742,550.177 932.908,550.344 947,551.5C 947.832,625.001 947.666,698.334 946.5,771.5 Z"/></g>
<g><path style="opacity:1" fill="#838fbb" d="M 1292.5,723.5 C 1292.72,666.495 1292.39,609.495 1291.5,552.5C 1277.5,552.5 1263.5,552.5 1249.5,552.5C 1249.82,559.687 1249.49,566.687 1248.5,573.5C 1248.19,565.913 1248.52,558.413 1249.5,551C 1263.88,550.184 1278.21,550.351 1292.5,551.5C 1293.24,595.667 1293.91,639.834 1294.5,684C 1294.17,697.342 1293.51,710.509 1292.5,723.5 Z"/></g>
<g><path style="opacity:1" fill="#30458d" d="M 1409.5,551.5 C 1410.5,551.5 1411.5,551.5 1412.5,551.5C 1425.83,551.5 1439.17,551.5 1452.5,551.5C 1484.5,551.5 1516.5,551.5 1548.5,551.5C 1562.5,551.5 1576.5,551.5 1590.5,551.5C 1593.19,551.336 1595.85,551.503 1598.5,552C 1599.62,552.839 1600.29,554.006 1600.5,555.5C 1598.81,565.228 1596.14,574.561 1592.5,583.5C 1591.08,585.515 1590.41,587.848 1590.5,590.5C 1552.66,590.168 1515,590.502 1477.5,591.5C 1463.83,591.333 1450.16,591.5 1436.5,592C 1429.59,592.063 1422.92,592.897 1416.5,594.5C 1405.88,598.712 1401.04,606.712 1402,618.5C 1401.33,648.5 1401.33,678.5 1402,708.5C 1402.42,712.191 1402.92,715.858 1403.5,719.5C 1403.43,721.027 1404.09,722.027 1405.5,722.5C 1405.97,723.906 1406.97,724.573 1408.5,724.5C 1409.17,724.5 1409.5,724.833 1409.5,725.5C 1409.97,726.906 1410.97,727.573 1412.5,727.5C 1414.15,727.66 1415.49,728.326 1416.5,729.5C 1416.61,730.117 1416.94,730.617 1417.5,731C 1445.82,732.189 1474.15,732.689 1502.5,732.5C 1502.83,732.5 1503.17,732.5 1503.5,732.5C 1526.99,733.498 1550.66,733.831 1574.5,733.5C 1580.6,733.923 1586.6,734.923 1592.5,736.5C 1592.4,738.553 1593.07,740.22 1594.5,741.5C 1595.4,742.209 1595.74,743.209 1595.5,744.5C 1596.63,749.882 1597.96,755.215 1599.5,760.5C 1598.52,763.962 1598.19,767.629 1598.5,771.5C 1548.17,771.333 1497.83,771.5 1447.5,772C 1498.5,772.5 1549.5,772.667 1600.5,772.5C 1547.17,773.833 1493.83,773.833 1440.5,772.5C 1427.33,771.614 1414,770.947 1400.5,770.5C 1398.59,770.784 1396.92,770.451 1395.5,769.5C 1394.22,768.069 1392.55,767.402 1390.5,767.5C 1390.17,767.5 1389.83,767.5 1389.5,767.5C 1389.03,766.094 1388.03,765.427 1386.5,765.5C 1383.52,764.674 1380.85,763.341 1378.5,761.5C 1377.74,759.738 1376.4,758.738 1374.5,758.5C 1374.03,757.094 1373.03,756.427 1371.5,756.5C 1360.63,747.602 1354.63,736.102 1353.5,722C 1353.35,678.706 1353.51,635.206 1354,591.5C 1356.27,587.268 1358.77,583.268 1361.5,579.5C 1362.91,579.027 1363.57,578.027 1363.5,576.5C 1364.91,576.027 1365.57,575.027 1365.5,573.5C 1365.5,572.833 1365.83,572.5 1366.5,572.5C 1369.5,570.167 1372.17,567.5 1374.5,564.5C 1376.03,564.573 1377.03,563.906 1377.5,562.5C 1381.18,559.992 1385.18,557.992 1389.5,556.5C 1392.72,556.655 1395.38,555.655 1397.5,553.5C 1401.79,553.802 1405.79,553.136 1409.5,551.5 Z"/></g>
<g><path style="opacity:1" fill="#2e458c" d="M 1701.5,551.5 C 1761.17,551.5 1820.83,551.5 1880.5,551.5C 1880.83,551.5 1881.17,551.5 1881.5,551.5C 1886.27,552.889 1891.27,553.556 1896.5,553.5C 1898.29,553.366 1899.96,553.699 1901.5,554.5C 1902.29,556.104 1903.62,556.771 1905.5,556.5C 1906.78,557.931 1908.45,558.598 1910.5,558.5C 1912.15,558.66 1913.49,559.326 1914.5,560.5C 1914.97,561.906 1915.97,562.573 1917.5,562.5C 1921.57,564.208 1924.91,566.874 1927.5,570.5C 1927.43,572.027 1928.09,573.027 1929.5,573.5C 1930.17,573.5 1930.5,573.833 1930.5,574.5C 1930.43,576.027 1931.09,577.027 1932.5,577.5C 1936.15,581.808 1938.49,586.808 1939.5,592.5C 1939.42,595.781 1940.09,598.781 1941.5,601.5C 1944.79,636.3 1945.29,671.3 1943,706.5C 1942.71,714.921 1941.71,723.254 1940,731.5C 1938.66,735.507 1936.83,739.173 1934.5,742.5C 1932.24,743.344 1931.24,745.011 1931.5,747.5C 1930.4,749.389 1929.06,751.055 1927.5,752.5C 1925.25,753.08 1923.58,754.413 1922.5,756.5C 1921.42,758.543 1919.75,759.876 1917.5,760.5C 1915.01,760.241 1913.34,761.241 1912.5,763.5C 1911.04,764.737 1909.37,765.737 1907.5,766.5C 1904.22,766.928 1901.22,767.928 1898.5,769.5C 1886.34,770.008 1874.34,770.675 1862.5,771.5C 1806.49,771.717 1750.49,771.383 1694.5,770.5C 1692.05,769.527 1689.39,769.194 1686.5,769.5C 1678.82,767.492 1671.82,764.159 1665.5,759.5C 1665.03,758.094 1664.03,757.427 1662.5,757.5C 1661.17,756.833 1660.17,755.833 1659.5,754.5C 1658.83,753.167 1657.83,752.167 1656.5,751.5C 1652.75,748.236 1649.92,744.236 1648,739.5C 1645.28,732.406 1643.78,725.073 1643.5,717.5C 1642.88,694.164 1642.21,670.831 1641.5,647.5C 1642.49,636.346 1642.83,625.012 1642.5,613.5C 1642.22,602.291 1644.88,591.957 1650.5,582.5C 1652.73,581.599 1653.73,579.933 1653.5,577.5C 1653.83,576.5 1654.5,575.833 1655.5,575.5C 1659.83,571.833 1663.83,567.833 1667.5,563.5C 1669.4,563.262 1670.74,562.262 1671.5,560.5C 1673.89,558.638 1676.56,557.304 1679.5,556.5C 1681.55,556.598 1683.22,555.931 1684.5,554.5C 1687.55,554.889 1690.22,554.223 1692.5,552.5C 1695.39,551.597 1698.39,551.264 1701.5,551.5 Z M 1738.5,592.5 C 1778.17,592.333 1817.83,592.5 1857.5,593C 1865.18,593.403 1872.85,593.903 1880.5,594.5C 1881.51,595.674 1882.85,596.34 1884.5,596.5C 1884.97,597.906 1885.97,598.573 1887.5,598.5C 1888.11,600.434 1889.11,602.101 1890.5,603.5C 1890.93,606.01 1891.59,608.343 1892.5,610.5C 1894.15,635.466 1894.81,660.466 1894.5,685.5C 1893.68,693.471 1893.34,701.471 1893.5,709.5C 1892.68,711.969 1892.18,714.635 1892,717.5C 1890.58,719.405 1889.41,721.405 1888.5,723.5C 1886.6,723.738 1885.26,724.738 1884.5,726.5C 1882.18,726.992 1880.18,727.992 1878.5,729.5C 1878.17,729.5 1877.83,729.5 1877.5,729.5C 1870.85,730.331 1864.18,730.998 1857.5,731.5C 1809.13,731.581 1764.46,731.581 1723.5,731.5C 1721.83,731.5 1720.17,731.5 1718.5,731.5C 1712.7,730.63 1707.04,728.964 1701.5,726.5C 1700.74,724.738 1699.4,723.738 1697.5,723.5C 1697.5,722.833 1697.17,722.5 1696.5,722.5C 1696.26,720.596 1695.26,719.262 1693.5,718.5C 1690.76,684.95 1690.26,651.617 1692,618.5C 1691.76,607.97 1695.93,599.97 1704.5,594.5C 1716,594.035 1727.33,593.369 1738.5,592.5 Z"/></g>
<g><path style="opacity:1" fill="#2e448c" d="M 113.5,552.5 C 177.5,552.5 241.5,552.5 305.5,552.5C 308.273,553.657 311.273,554.324 314.5,554.5C 313.829,567.037 310.162,578.537 303.5,589C 299.249,590.195 294.915,590.695 290.5,590.5C 252.499,590.333 214.499,590.5 176.5,591C 158.302,591.025 140.302,591.858 122.5,593.5C 113.924,595.912 108.424,601.579 106,610.5C 104.324,615.22 104.658,619.886 107,624.5C 108.662,627.649 110.495,630.649 112.5,633.5C 112.973,634.906 113.973,635.573 115.5,635.5C 116.995,635.989 118.329,636.655 119.5,637.5C 128.294,638.934 137.294,639.767 146.5,640C 179.498,640.5 212.498,640.667 245.5,640.5C 249.167,640.5 252.833,640.5 256.5,640.5C 265.689,641.495 275.022,642.495 284.5,643.5C 288.915,643.861 292.915,645.194 296.5,647.5C 297.514,648.674 298.847,649.34 300.5,649.5C 303.198,649.845 305.198,651.178 306.5,653.5C 306.973,654.906 307.973,655.573 309.5,655.5C 322.275,668.816 327.942,684.816 326.5,703.5C 326.803,715.335 325.636,727.002 323,738.5C 319.506,746.501 314.339,753.168 307.5,758.5C 305.973,758.427 304.973,759.094 304.5,760.5C 304.027,761.906 303.027,762.573 301.5,762.5C 299.973,762.427 298.973,763.094 298.5,764.5C 294.151,767.341 289.484,769.674 284.5,771.5C 242.33,771.168 200.33,771.501 158.5,772.5C 129.174,771.684 99.841,771.35 70.5,771.5C 69.0813,770.549 67.4147,770.216 65.5,770.5C 65.5,767.167 65.5,763.833 65.5,760.5C 65.5651,757.572 66.2318,754.905 67.5,752.5C 69.1628,750.562 69.8294,748.228 69.5,745.5C 69.9348,742.843 70.9348,740.509 72.5,738.5C 73.9063,738.027 74.573,737.027 74.5,735.5C 74.5,734.833 74.8333,734.5 75.5,734.5C 122.627,733.843 169.627,733.176 216.5,732.5C 233.17,732.667 249.837,732.5 266.5,732C 269.447,729.564 271.78,726.731 273.5,723.5C 274.906,723.027 275.573,722.027 275.5,720.5C 277.446,719.965 278.446,718.632 278.5,716.5C 281.104,706.481 279.27,697.148 273,688.5C 271.457,686.622 269.624,685.122 267.5,684C 259.688,683.123 252.021,682.289 244.5,681.5C 210.004,680.502 175.337,680.168 140.5,680.5C 131.651,680.826 122.984,680.493 114.5,679.5C 105.492,678.001 96.4924,676.001 87.5,673.5C 87.0269,672.094 86.0269,671.427 84.5,671.5C 82.5956,671.262 81.2623,670.262 80.5,668.5C 80.0269,667.094 79.0269,666.427 77.5,666.5C 67.7734,658.765 61.7734,648.765 59.5,636.5C 59.7489,632.542 59.0823,628.876 57.5,625.5C 57.5,619.167 57.5,612.833 57.5,606.5C 58.9034,603.091 59.5701,599.425 59.5,595.5C 59.9564,589.78 61.9564,584.78 65.5,580.5C 66.9063,580.027 67.573,579.027 67.5,577.5C 68.9063,577.027 69.573,576.027 69.5,574.5C 70.5116,573.128 71.5116,571.795 72.5,570.5C 76.7706,567.899 80.4372,564.566 83.5,560.5C 85.0269,560.573 86.0269,559.906 86.5,558.5C 88.8568,558.663 91.1902,558.497 93.5,558C 94.056,557.617 94.3893,557.117 94.5,556.5C 95.2623,554.738 96.5956,553.738 98.5,553.5C 103.463,552.746 108.463,552.413 113.5,552.5 Z"/></g>
<g><path style="opacity:0.502" fill="#9aa5c8" d="M 1013.5,551.5 C 1012.83,552.833 1011.83,553.833 1010.5,554.5C 1010.5,552.5 1011.5,551.5 1013.5,551.5 Z"/></g>
<g><path style="opacity:1" fill="#2e448c" d="M 1066.5,723.5 C 1066.5,725.5 1067.5,726.5 1069.5,726.5C 1070.17,726.833 1070.83,727.167 1071.5,727.5C 1072.64,729.213 1074.3,729.88 1076.5,729.5C 1083.66,729.964 1090.66,730.631 1097.5,731.5C 1127.33,732.498 1157.33,732.831 1187.5,732.5C 1197.35,732.827 1207.01,732.494 1216.5,731.5C 1221.86,731.33 1227.19,730.83 1232.5,730C 1233.06,729.617 1233.39,729.117 1233.5,728.5C 1234.51,727.326 1235.85,726.66 1237.5,726.5C 1240.62,725.712 1242.29,723.712 1242.5,720.5C 1242.8,718.597 1243.46,716.93 1244.5,715.5C 1246.18,711.455 1246.84,707.122 1246.5,702.5C 1247.74,658.682 1248.4,615.682 1248.5,573.5C 1249.49,566.687 1249.82,559.687 1249.5,552.5C 1263.5,552.5 1277.5,552.5 1291.5,552.5C 1292.39,609.495 1292.72,666.495 1292.5,723.5C 1291.42,726.627 1290.75,729.96 1290.5,733.5C 1286.46,747.537 1277.79,757.537 1264.5,763.5C 1260.92,763.73 1257.92,765.063 1255.5,767.5C 1253.21,767.595 1251.21,768.262 1249.5,769.5C 1248.43,770.434 1247.1,770.768 1245.5,770.5C 1242.61,770.194 1239.95,770.527 1237.5,771.5C 1180.5,772.802 1123.5,772.802 1066.5,771.5C 1066.17,771.5 1065.83,771.5 1065.5,771.5C 1061.38,770.057 1057.05,769.057 1052.5,768.5C 1052.17,768.5 1051.83,768.5 1051.5,768.5C 1050.71,766.896 1049.38,766.229 1047.5,766.5C 1045.85,766.34 1044.51,765.674 1043.5,764.5C 1042.49,763.326 1041.15,762.66 1039.5,762.5C 1039.03,761.094 1038.03,760.427 1036.5,760.5C 1034.25,759.92 1032.58,758.587 1031.5,756.5C 1031.03,755.094 1030.03,754.427 1028.5,754.5C 1028.26,752.596 1027.26,751.262 1025.5,750.5C 1020.05,745.277 1016.38,738.944 1014.5,731.5C 1013.14,721.889 1012.31,712.223 1012,702.5C 1010.84,653.173 1010.34,603.84 1010.5,554.5C 1011.83,553.833 1012.83,552.833 1013.5,551.5C 1016.39,551.806 1019.05,551.473 1021.5,550.5C 1032.79,549.257 1044.12,549.424 1055.5,551C 1057.33,551.5 1058.5,552.667 1059,554.5C 1060.07,569.369 1060.9,584.202 1061.5,599C 1060.63,601.035 1060.29,603.368 1060.5,606C 1061.33,637.095 1061.83,668.262 1062,699.5C 1061.89,707.865 1063.39,715.865 1066.5,723.5 Z"/></g>
<g><path style="opacity:1" fill="#8590bc" d="M 1409.5,551.5 C 1405.79,553.136 1401.79,553.802 1397.5,553.5C 1401.24,552.011 1405.24,551.344 1409.5,551.5 Z"/></g>
<g><path style="opacity:0.996" fill="#8591bc" d="M 1896.5,553.5 C 1891.27,553.556 1886.27,552.889 1881.5,551.5C 1881.43,551.062 1881.6,550.728 1882,550.5C 1886.99,551.176 1891.82,552.176 1896.5,553.5 Z"/></g>
<g><path style="opacity:1" fill="#8590bc" d="M 305.5,552.5 C 308.877,552.068 311.877,552.735 314.5,554.5C 311.273,554.324 308.273,553.657 305.5,552.5 Z"/></g>
<g><path style="opacity:1" fill="#223a86" d="M 903.5,553.5 C 903.5,553.167 903.5,552.833 903.5,552.5C 917.833,552.5 932.167,552.5 946.5,552.5C 946.5,625.167 946.5,697.833 946.5,770.5C 945.501,698.335 945.167,626.002 945.5,553.5C 931.5,553.5 917.5,553.5 903.5,553.5 Z"/></g>
<g><path style="opacity:1" fill="#8b96bf" d="M 1692.5,552.5 C 1690.22,554.223 1687.55,554.889 1684.5,554.5C 1686.91,553.232 1689.57,552.565 1692.5,552.5 Z"/></g>
<g><path style="opacity:0.502" fill="#97a1c6" d="M 424.5,553.5 C 420.478,555.734 416.144,557.401 411.5,558.5C 415.206,555.491 419.539,553.824 424.5,553.5 Z"/></g>
<g><path style="opacity:1" fill="#8893be" d="M 1397.5,553.5 C 1395.38,555.655 1392.72,556.655 1389.5,556.5C 1391.79,554.733 1394.46,553.733 1397.5,553.5 Z"/></g>
<g><path style="opacity:0.322" fill="#a7b1cf" d="M 1684.5,554.5 C 1683.22,555.931 1681.55,556.598 1679.5,556.5C 1680.78,555.069 1682.45,554.402 1684.5,554.5 Z"/></g>
<g><path style="opacity:0.322" fill="#afb8d4" d="M 1901.5,554.5 C 1903.15,554.66 1904.49,555.326 1905.5,556.5C 1903.62,556.771 1902.29,556.104 1901.5,554.5 Z"/></g>
<g><path style="opacity:1" fill="#717db0" d="M 94.5,556.5 C 94.3893,557.117 94.056,557.617 93.5,558C 91.1902,558.497 88.8568,558.663 86.5,558.5C 88.9608,557.469 91.6275,556.802 94.5,556.5 Z"/></g>
<g><path style="opacity:0.322" fill="#a4aece" d="M 1905.5,556.5 C 1907.55,556.402 1909.22,557.069 1910.5,558.5C 1908.45,558.598 1906.78,557.931 1905.5,556.5 Z"/></g>
<g><path style="opacity:0.502" fill="#97a2c7" d="M 86.5,558.5 C 86.0269,559.906 85.0269,560.573 83.5,560.5C 83.9731,559.094 84.9731,558.427 86.5,558.5 Z"/></g>
<g><path style="opacity:0.502" fill="#929cc3" d="M 1671.5,560.5 C 1670.74,562.262 1669.4,563.262 1667.5,563.5C 1668.26,561.738 1669.6,560.738 1671.5,560.5 Z"/></g>
<g><path style="opacity:0.322" fill="#a4aece" d="M 1914.5,560.5 C 1916.03,560.427 1917.03,561.094 1917.5,562.5C 1915.97,562.573 1914.97,561.906 1914.5,560.5 Z"/></g>
<g><path style="opacity:0.502" fill="#929cc3" d="M 404.5,562.5 C 403.738,564.262 402.404,565.262 400.5,565.5C 401.262,563.738 402.596,562.738 404.5,562.5 Z"/></g>
<g><path style="opacity:0.502" fill="#97a2c7" d="M 1377.5,562.5 C 1377.03,563.906 1376.03,564.573 1374.5,564.5C 1374.97,563.094 1375.97,562.427 1377.5,562.5 Z"/></g>
<g><path style="opacity:0.675" fill="#707cb0" d="M 83.5,560.5 C 80.4372,564.566 76.7706,567.899 72.5,570.5C 75.5628,566.434 79.2294,563.101 83.5,560.5 Z"/></g>
<g><path style="opacity:0.675" fill="#7480b2" d="M 1667.5,563.5 C 1663.83,567.833 1659.83,571.833 1655.5,575.5C 1658.5,570.5 1662.5,566.5 1667.5,563.5 Z"/></g>
<g><path style="opacity:0.675" fill="#7f8ab8" d="M 1374.5,564.5 C 1372.17,567.5 1369.5,570.167 1366.5,572.5C 1368.17,568.833 1370.83,566.167 1374.5,564.5 Z"/></g>
<g><path style="opacity:0.675" fill="#7f8ab9" d="M 400.5,565.5 C 397.167,569.5 393.5,573.167 389.5,576.5C 392.167,571.833 395.833,568.167 400.5,565.5 Z"/></g>
<g><path style="opacity:0.502" fill="#8c97c0" d="M 1927.5,570.5 C 1928.91,570.973 1929.57,571.973 1929.5,573.5C 1928.09,573.027 1927.43,572.027 1927.5,570.5 Z"/></g>
<g><path style="opacity:0.502" fill="#9da7ca" d="M 69.5,574.5 C 69.573,576.027 68.9063,577.027 67.5,577.5C 67.427,575.973 68.0937,574.973 69.5,574.5 Z"/></g>
<g><path style="opacity:0.502" fill="#8893be" d="M 1365.5,573.5 C 1365.57,575.027 1364.91,576.027 1363.5,576.5C 1363.43,574.973 1364.09,573.973 1365.5,573.5 Z"/></g>
<g><path style="opacity:0.502" fill="#8893be" d="M 1930.5,574.5 C 1931.91,574.973 1932.57,575.973 1932.5,577.5C 1931.09,577.027 1930.43,576.027 1930.5,574.5 Z"/></g>
<g><path style="opacity:0.502" fill="#8893be" d="M 1363.5,576.5 C 1363.57,578.027 1362.91,579.027 1361.5,579.5C 1361.43,577.973 1362.09,576.973 1363.5,576.5 Z"/></g>
<g><path style="opacity:0.502" fill="#8893be" d="M 67.5,577.5 C 67.573,579.027 66.9063,580.027 65.5,580.5C 65.427,578.973 66.0937,577.973 67.5,577.5 Z"/></g>
<g><path style="opacity:0.675" fill="#8a94be" d="M 1653.5,577.5 C 1653.73,579.933 1652.73,581.599 1650.5,582.5C 1651.11,580.566 1652.11,578.899 1653.5,577.5 Z"/></g>
<g><path style="opacity:0.322" fill="#a6b0cf" d="M 1010.5,554.5 C 1010.34,603.84 1010.84,653.173 1012,702.5C 1012.31,712.223 1013.14,721.889 1014.5,731.5C 1013.07,728.097 1012.24,724.43 1012,720.5C 1009.61,665.573 1009.11,610.24 1010.5,554.5 Z"/></g>
<g><path style="opacity:0.141" fill="#b6bed8" d="M 1592.5,583.5 C 1592.59,586.152 1591.92,588.485 1590.5,590.5C 1590.41,587.848 1591.08,585.515 1592.5,583.5 Z"/></g>
<g><path style="opacity:0.996" fill="#828fbb" d="M 594.5,590.5 C 601.648,589.508 608.981,589.175 616.5,589.5C 611.1,590.187 605.6,590.854 600,591.5C 598.855,591.381 597.688,591.048 596.5,590.5C 595.833,590.5 595.167,590.5 594.5,590.5 Z"/></g>
<g><path style="opacity:0.996" fill="#9aa5c8" d="M 290.5,590.5 C 278.098,591.176 265.598,591.842 253,592.5C 228,592.167 203,591.833 178,591.5C 159.568,592.385 141.068,593.052 122.5,593.5C 140.302,591.858 158.302,591.025 176.5,591C 214.499,590.5 252.499,590.333 290.5,590.5 Z"/></g>
<g><path style="opacity:0.996" fill="#929dc3" d="M 1477.5,591.5 C 1515,590.502 1552.66,590.168 1590.5,590.5C 1590.22,591.289 1589.72,591.956 1589,592.5C 1552.34,591.5 1515.5,591.167 1478.5,591.5C 1478.17,591.5 1477.83,591.5 1477.5,591.5 Z"/></g>
<g><path style="opacity:0.322" fill="#a5afce" d="M 594.5,590.5 C 595.167,590.5 595.833,590.5 596.5,590.5C 543.838,591.742 491.838,592.742 440.5,593.5C 491.649,591.36 542.982,590.36 594.5,590.5 Z"/></g>
<g><path style="opacity:0.322" fill="#96a1c6" d="M 1728.5,592.5 C 1772.33,591.335 1816.33,591.169 1860.5,592C 1867.42,592.007 1874.09,592.84 1880.5,594.5C 1872.85,593.903 1865.18,593.403 1857.5,593C 1817.83,592.5 1778.17,592.333 1738.5,592.5C 1735.17,592.5 1731.83,592.5 1728.5,592.5 Z"/></g>
<g><path style="opacity:0.141" fill="#b5bdd7" d="M 1477.5,591.5 C 1477.83,591.5 1478.17,591.5 1478.5,591.5C 1457.97,592.226 1437.31,593.226 1416.5,594.5C 1422.92,592.897 1429.59,592.063 1436.5,592C 1450.16,591.5 1463.83,591.333 1477.5,591.5 Z"/></g>
<g><path style="opacity:0.322" fill="#a4aece" d="M 1728.5,592.5 C 1731.83,592.5 1735.17,592.5 1738.5,592.5C 1727.33,593.369 1716,594.035 1704.5,594.5C 1712.26,592.731 1720.26,592.065 1728.5,592.5 Z"/></g>
<g><path style="opacity:0.996" fill="#909cc2" d="M 1884.5,596.5 C 1886.03,596.427 1887.03,597.094 1887.5,598.5C 1885.97,598.573 1884.97,597.906 1884.5,596.5 Z"/></g>
<g><path style="opacity:0.141" fill="#b2bad5" d="M 436.5,596.5 C 436.262,598.404 435.262,599.738 433.5,600.5C 433.738,598.596 434.738,597.262 436.5,596.5 Z"/></g>
<g><path style="opacity:0.502" fill="#8490bc" d="M 1939.5,592.5 C 1941.12,595.171 1941.78,598.171 1941.5,601.5C 1940.09,598.781 1939.42,595.781 1939.5,592.5 Z"/></g>
<g><path style="opacity:0.996" fill="#7d8bb8" d="M 59.5,595.5 C 59.5701,599.425 58.9034,603.091 57.5,606.5C 57.4299,602.575 58.0966,598.909 59.5,595.5 Z"/></g>
<g><path style="opacity:1" fill="#7784b4" d="M 1890.5,603.5 C 1891.12,603.611 1891.62,603.944 1892,604.5C 1892.5,606.473 1892.66,608.473 1892.5,610.5C 1891.59,608.343 1890.93,606.01 1890.5,603.5 Z"/></g>
<g><path style="opacity:0.996" fill="#8995be" d="M 678.5,553.5 C 678.5,626.167 678.5,698.833 678.5,771.5C 677.789,715.496 677.122,659.33 676.5,603C 676.884,586.882 677.551,570.382 678.5,553.5 Z"/></g>
<g><path style="opacity:0.502" fill="#919dc3" d="M 57.5,625.5 C 59.0823,628.876 59.7489,632.542 59.5,636.5C 58.0966,633.091 57.4299,629.425 57.5,625.5 Z"/></g>
<g><path style="opacity:0.996" fill="#949fc5" d="M 1642.5,613.5 C 1642.83,625.012 1642.49,636.346 1641.5,647.5C 1640.94,644.966 1640.61,642.466 1640.5,640C 1641.15,631.068 1641.82,622.235 1642.5,613.5 Z"/></g>
<g><path style="opacity:0.141" fill="#acb5d2" d="M 112.5,633.5 C 114.027,633.427 115.027,634.094 115.5,635.5C 113.973,635.573 112.973,634.906 112.5,633.5 Z"/></g>
<g><path style="opacity:0.141" fill="#bfc6dd" d="M 726.5,620.5 C 727.487,625.305 727.821,630.305 727.5,635.5C 748.007,635.17 768.34,635.503 788.5,636.5C 787.833,636.5 787.167,636.5 786.5,636.5C 766.5,636.5 746.5,636.5 726.5,636.5C 726.5,631.167 726.5,625.833 726.5,620.5 Z"/></g>
<g><path style="opacity:0.322" fill="#acb5d2" d="M 897.5,634.5 C 896.391,635.29 895.058,635.79 893.5,636C 885.507,636.5 877.507,636.666 869.5,636.5C 868.833,636.5 868.167,636.5 867.5,636.5C 877.344,635.702 887.344,635.036 897.5,634.5 Z"/></g>
<g><path style="opacity:0.502" fill="#7d8bb8" d="M 867.5,636.5 C 868.167,636.5 868.833,636.5 869.5,636.5C 841.833,637.833 814.167,637.833 786.5,636.5C 787.167,636.5 787.833,636.5 788.5,636.5C 814.349,636.452 840.682,636.452 867.5,636.5 Z"/></g>
<g><path style="opacity:0.141" fill="#a9b1d0" d="M 119.5,637.5 C 161.653,638.757 203.653,639.757 245.5,640.5C 212.498,640.667 179.498,640.5 146.5,640C 137.294,639.767 128.294,638.934 119.5,637.5 Z"/></g>
<g><path style="opacity:0.322" fill="#a9b2d1" d="M 256.5,640.5 C 266.126,640.092 275.46,641.092 284.5,643.5C 275.022,642.495 265.689,641.495 256.5,640.5 Z"/></g>
<g><path style="opacity:0.996" fill="#7785b4" d="M 1892.5,610.5 C 1894.15,615.212 1894.99,620.212 1895,625.5C 1895.83,645.671 1895.66,665.671 1894.5,685.5C 1894.81,660.466 1894.15,635.466 1892.5,610.5 Z"/></g>
<g><path style="opacity:0.322" fill="#9ca6c9" d="M 296.5,647.5 C 298.38,647.229 299.713,647.896 300.5,649.5C 298.847,649.34 297.514,648.674 296.5,647.5 Z"/></g>
<g><path style="opacity:0.141" fill="#acb5d2" d="M 306.5,653.5 C 308.027,653.427 309.027,654.094 309.5,655.5C 307.973,655.573 306.973,654.906 306.5,653.5 Z"/></g>
<g><path style="opacity:0.996" fill="#9ca6c9" d="M 1641.5,647.5 C 1642.21,670.831 1642.88,694.164 1643.5,717.5C 1641.11,692.341 1640.44,669.008 1641.5,647.5 Z"/></g>
<g><path style="opacity:0.322" fill="#a2accd" d="M 380.5,595.5 C 379.249,639.163 379.249,682.829 380.5,726.5C 378.98,702.853 378.314,679.019 378.5,655C 378.667,638.5 378.833,622 379,605.5C 379.179,601.975 379.679,598.641 380.5,595.5 Z"/></g>
<g><path style="opacity:0.502" fill="#9da7ca" d="M 77.5,666.5 C 79.0269,666.427 80.0269,667.094 80.5,668.5C 78.9731,668.573 77.9731,667.906 77.5,666.5 Z"/></g>
<g><path style="opacity:0.322" fill="#a4aece" d="M 84.5,671.5 C 86.0269,671.427 87.0269,672.094 87.5,673.5C 85.9731,673.573 84.9731,672.906 84.5,671.5 Z"/></g>
<g><path style="opacity:1" fill="#848fbb" d="M 87.5,673.5 C 96.4924,676.001 105.492,678.001 114.5,679.5C 104.88,679.736 95.8803,677.736 87.5,673.5 Z"/></g>
<g><path style="opacity:1" fill="#203884" d="M 813.5,678.5 C 784.833,678.5 756.167,678.5 727.5,678.5C 775.277,676.794 824.611,676.294 875.5,677C 854.663,677.168 833.996,677.668 813.5,678.5 Z"/></g>
<g><path style="opacity:0.996" fill="#8b96bf" d="M 726.5,679.5 C 726.5,678.833 726.833,678.5 727.5,678.5C 756.167,678.5 784.833,678.5 813.5,678.5C 837.006,678.169 860.339,678.502 883.5,679.5C 838.959,679.513 794.626,679.513 750.5,679.5C 742.5,679.5 734.5,679.5 726.5,679.5 Z"/></g>
<g><path style="opacity:0.996" fill="#8e9ac1" d="M 140.5,680.5 C 175.337,680.168 210.004,680.502 244.5,681.5C 242.389,681.772 240.223,682.105 238,682.5C 205.402,681.837 172.902,681.17 140.5,680.5 Z"/></g>
<g><path style="opacity:0.141" fill="#c2c9de" d="M 726.5,679.5 C 734.5,679.5 742.5,679.5 750.5,679.5C 743.018,680.492 735.352,680.825 727.5,680.5C 727.821,686.026 727.488,691.36 726.5,696.5C 726.5,690.833 726.5,685.167 726.5,679.5 Z"/></g>
<g><path style="opacity:0.675" fill="#7380b2" d="M 1246.5,702.5 C 1246.84,707.122 1246.18,711.455 1244.5,715.5C 1244.77,710.972 1245.44,706.639 1246.5,702.5 Z"/></g>
<g><path style="opacity:1" fill="#7c89b7" d="M 1893.5,709.5 C 1894.7,715.354 1893.03,720.02 1888.5,723.5C 1889.41,721.405 1890.58,719.405 1892,717.5C 1892.18,714.635 1892.68,711.969 1893.5,709.5 Z"/></g>
<g><path style="opacity:0.322" fill="#909ac2" d="M 278.5,716.5 C 278.446,718.632 277.446,719.965 275.5,720.5C 276.026,718.77 277.026,717.436 278.5,716.5 Z"/></g>
<g><path style="opacity:0.996" fill="#8d98c0" d="M 1693.5,718.5 C 1695.26,719.262 1696.26,720.596 1696.5,722.5C 1694.74,721.738 1693.74,720.404 1693.5,718.5 Z"/></g>
<g><path style="opacity:0.502" fill="#9da7ca" d="M 275.5,720.5 C 275.573,722.027 274.906,723.027 273.5,723.5C 273.427,721.973 274.094,720.973 275.5,720.5 Z"/></g>
<g><path style="opacity:0.502" fill="#8c97c0" d="M 1403.5,719.5 C 1404.91,719.973 1405.57,720.973 1405.5,722.5C 1404.09,722.027 1403.43,721.027 1403.5,719.5 Z"/></g>
<g><path style="opacity:0.141" fill="#acb5d2" d="M 1405.5,722.5 C 1407.03,722.427 1408.03,723.094 1408.5,724.5C 1406.97,724.573 1405.97,723.906 1405.5,722.5 Z"/></g>
<g><path style="opacity:0.141" fill="#a5aece" d="M 1697.5,723.5 C 1699.4,723.738 1700.74,724.738 1701.5,726.5C 1699.6,726.262 1698.26,725.262 1697.5,723.5 Z"/></g>
<g><path style="opacity:0.502" fill="#a5aece" d="M 1066.5,723.5 C 1067.83,724.167 1068.83,725.167 1069.5,726.5C 1067.5,726.5 1066.5,725.5 1066.5,723.5 Z"/></g>
<g><path style="opacity:0.675" fill="#7682b3" d="M 1242.5,720.5 C 1242.29,723.712 1240.62,725.712 1237.5,726.5C 1239.2,724.475 1240.86,722.475 1242.5,720.5 Z"/></g>
<g><path style="opacity:0.996" fill="#8f9bc2" d="M 1888.5,723.5 C 1887.74,725.262 1886.4,726.262 1884.5,726.5C 1885.26,724.738 1886.6,723.738 1888.5,723.5 Z"/></g>
<g><path style="opacity:0.322" fill="#a1abcc" d="M 1292.5,723.5 C 1292.84,727.16 1292.17,730.493 1290.5,733.5C 1290.75,729.96 1291.42,726.627 1292.5,723.5 Z"/></g>
<g><path style="opacity:0.141" fill="#b4bcd6" d="M 1409.5,725.5 C 1411.03,725.427 1412.03,726.094 1412.5,727.5C 1410.97,727.573 1409.97,726.906 1409.5,725.5 Z"/></g>
<g><path style="opacity:0.322" fill="#a6afce" d="M 1701.5,726.5 C 1707.04,728.964 1712.7,730.63 1718.5,731.5C 1716.5,731.5 1714.5,731.5 1712.5,731.5C 1709.47,730.826 1706.47,729.993 1703.5,729C 1702.62,728.292 1701.95,727.458 1701.5,726.5 Z"/></g>
<g><path style="opacity:0.322" fill="#9ca6c9" d="M 1884.5,726.5 C 1883.09,728.539 1881.09,729.539 1878.5,729.5C 1880.18,727.992 1882.18,726.992 1884.5,726.5 Z"/></g>
<g><path style="opacity:0.322" fill="#b1b9d5" d="M 1071.5,727.5 C 1073.4,727.796 1075.07,728.463 1076.5,729.5C 1074.3,729.88 1072.64,729.213 1071.5,727.5 Z"/></g>
<g><path style="opacity:0.141" fill="#b1b9d5" d="M 442.5,729.5 C 446.011,729.899 449.344,730.566 452.5,731.5C 449.813,731.664 447.146,731.497 444.5,731C 443.584,730.722 442.918,730.222 442.5,729.5 Z"/></g>
<g><path style="opacity:0.141" fill="#b3bbd6" d="M 1233.5,728.5 C 1233.39,729.117 1233.06,729.617 1232.5,730C 1227.19,730.83 1221.86,731.33 1216.5,731.5C 1211.83,731.5 1207.17,731.5 1202.5,731.5C 1212.74,730.847 1223.07,729.847 1233.5,728.5 Z"/></g>
<g><path style="opacity:0.996" fill="#99a3c7" d="M 273.5,723.5 C 271.78,726.731 269.447,729.564 266.5,732C 249.837,732.5 233.17,732.667 216.5,732.5C 170.5,732.5 124.5,732.5 78.5,732.5C 140.665,731.667 202.999,731.167 265.5,731C 268.036,728.295 270.703,725.795 273.5,723.5 Z"/></g>
<g><path style="opacity:0.322" fill="#abb4d1" d="M 1187.5,731.5 C 1187.5,731.833 1187.5,732.167 1187.5,732.5C 1157.33,732.831 1127.33,732.498 1097.5,731.5C 1127.29,731.48 1157.29,731.48 1187.5,731.5 Z"/></g>
<g><path style="opacity:1" fill="#5d6ea6" d="M 1202.5,731.5 C 1207.17,731.5 1211.83,731.5 1216.5,731.5C 1207.01,732.494 1197.35,732.827 1187.5,732.5C 1187.5,732.167 1187.5,731.833 1187.5,731.5C 1192.71,731.365 1197.71,731.365 1202.5,731.5 Z"/></g>
<g><path style="opacity:0.996" fill="#9da7ca" d="M 1416.5,729.5 C 1445.02,730.791 1473.69,731.791 1502.5,732.5C 1474.15,732.689 1445.82,732.189 1417.5,731C 1416.94,730.617 1416.61,730.117 1416.5,729.5 Z"/></g>
<g><path style="opacity:0.502" fill="#8996bf" d="M 1877.5,729.5 C 1871.15,731.631 1864.48,732.631 1857.5,732.5C 1857.5,732.167 1857.5,731.833 1857.5,731.5C 1864.18,730.998 1870.85,730.331 1877.5,729.5 Z"/></g>
<g><path style="opacity:1" fill="#4f629e" d="M 78.5,732.5 C 124.5,732.5 170.5,732.5 216.5,732.5C 169.627,733.176 122.627,733.843 75.5,734.5C 75.9731,733.094 76.9731,732.427 78.5,732.5 Z"/></g>
<g><path style="opacity:0.322" fill="#afb7d4" d="M 584.5,733.5 C 544.33,733.832 504.33,733.499 464.5,732.5C 465.117,732.389 465.617,732.056 466,731.5C 505.598,732.164 545.098,732.831 584.5,733.5 Z"/></g>
<g><path style="opacity:0.996" fill="#8c98c0" d="M 1591.5,733.5 C 1585.83,733.5 1580.17,733.5 1574.5,733.5C 1550.66,733.831 1526.99,733.498 1503.5,732.5C 1504.22,732.217 1505.05,731.884 1506,731.5C 1534.6,732.163 1563.1,732.829 1591.5,733.5 Z"/></g>
<g><path style="opacity:1" fill="#5a6ba4" d="M 1712.5,731.5 C 1714.5,731.5 1716.5,731.5 1718.5,731.5C 1720.17,731.5 1721.83,731.5 1723.5,731.5C 1728.17,732.167 1732.83,732.833 1737.5,733.5C 1728.95,733.71 1720.62,733.043 1712.5,731.5 Z"/></g>
<g><path style="opacity:0.996" fill="#97a1c6" d="M 1723.5,731.5 C 1764.46,731.581 1809.13,731.581 1857.5,731.5C 1857.5,731.833 1857.5,732.167 1857.5,732.5C 1817.51,733.405 1777.51,733.738 1737.5,733.5C 1732.83,732.833 1728.17,732.167 1723.5,731.5 Z"/></g>
<g><path style="opacity:1" fill="#7881b3" d="M 381.5,731.5 C 383.727,733.229 384.727,735.562 384.5,738.5C 382.707,736.574 381.707,734.241 381.5,731.5 Z"/></g>
<g><path style="opacity:0.996" fill="#95a0c5" d="M 604.5,734.5 C 597.646,734.824 590.979,734.491 584.5,733.5C 585.117,733.389 585.617,733.056 586,732.5C 592.266,733.149 598.433,733.815 604.5,734.5 Z"/></g>
<g><path style="opacity:1" fill="#596aa4" d="M 1574.5,733.5 C 1580.17,733.5 1585.83,733.5 1591.5,733.5C 1592.4,734.209 1592.74,735.209 1592.5,736.5C 1586.6,734.923 1580.6,733.923 1574.5,733.5 Z"/></g>
<g><path style="opacity:0.502" fill="#8893be" d="M 74.5,735.5 C 74.573,737.027 73.9063,738.027 72.5,738.5C 72.427,736.973 73.0937,735.973 74.5,735.5 Z"/></g>
<g><path style="opacity:0.141" fill="#b8bfd9" d="M 1592.5,736.5 C 1593.93,737.78 1594.6,739.447 1594.5,741.5C 1593.07,740.22 1592.4,738.553 1592.5,736.5 Z"/></g>
<g><path style="opacity:0.141" fill="#acb5d2" d="M 386.5,741.5 C 387.906,741.973 388.573,742.973 388.5,744.5C 387.094,744.027 386.427,743.027 386.5,741.5 Z"/></g>
<g><path style="opacity:1" fill="#757fb2" d="M 1934.5,742.5 C 1933.89,744.434 1932.89,746.101 1931.5,747.5C 1931.24,745.011 1932.24,743.344 1934.5,742.5 Z"/></g>
<g><path style="opacity:0.502" fill="#8994be" d="M 69.5,745.5 C 69.8294,748.228 69.1628,750.562 67.5,752.5C 67.4095,749.848 68.0762,747.515 69.5,745.5 Z"/></g>
<g><path style="opacity:0.141" fill="#aab3d1" d="M 1025.5,750.5 C 1027.26,751.262 1028.26,752.596 1028.5,754.5C 1026.74,753.738 1025.74,752.404 1025.5,750.5 Z"/></g>
<g><path style="opacity:0.322" fill="#9ea8ca" d="M 1595.5,744.5 C 1598.35,750.073 1600.02,756.073 1600.5,762.5C 1599.66,762.158 1599.33,761.492 1599.5,760.5C 1597.96,755.215 1596.63,749.882 1595.5,744.5 Z"/></g>
<g><path style="opacity:0.141" fill="#a5aece" d="M 1656.5,751.5 C 1657.83,752.167 1658.83,753.167 1659.5,754.5C 1657.5,754.5 1656.5,753.5 1656.5,751.5 Z"/></g>
<g><path style="opacity:0.141" fill="#b2bad5" d="M 1927.5,752.5 C 1926.42,754.587 1924.75,755.92 1922.5,756.5C 1923.58,754.413 1925.25,753.08 1927.5,752.5 Z"/></g>
<g><path style="opacity:0.502" fill="#8c97c0" d="M 1028.5,754.5 C 1030.03,754.427 1031.03,755.094 1031.5,756.5C 1029.97,756.573 1028.97,755.906 1028.5,754.5 Z"/></g>
<g><path style="opacity:0.502" fill="#8c97c0" d="M 1371.5,756.5 C 1373.03,756.427 1374.03,757.094 1374.5,758.5C 1372.97,758.573 1371.97,757.906 1371.5,756.5 Z"/></g>
<g><path style="opacity:0.322" fill="#9da6c9" d="M 1662.5,757.5 C 1664.03,757.427 1665.03,758.094 1665.5,759.5C 1663.97,759.573 1662.97,758.906 1662.5,757.5 Z"/></g>
<g><path style="opacity:0.141" fill="#bac1da" d="M 307.5,758.5 C 307.027,759.906 306.027,760.573 304.5,760.5C 304.973,759.094 305.973,758.427 307.5,758.5 Z"/></g>
<g><path style="opacity:0.502" fill="#929cc3" d="M 1374.5,758.5 C 1376.4,758.738 1377.74,759.738 1378.5,761.5C 1376.6,761.262 1375.26,760.262 1374.5,758.5 Z"/></g>
<g><path style="opacity:1" fill="#747db1" d="M 1917.5,760.5 C 1916.1,761.89 1914.43,762.89 1912.5,763.5C 1913.34,761.241 1915.01,760.241 1917.5,760.5 Z"/></g>
<g><path style="opacity:0.502" fill="#8c97c0" d="M 402.5,760.5 C 404.027,760.427 405.027,761.094 405.5,762.5C 403.973,762.573 402.973,761.906 402.5,760.5 Z"/></g>
<g><path style="opacity:0.502" fill="#8893be" d="M 1036.5,760.5 C 1038.03,760.427 1039.03,761.094 1039.5,762.5C 1037.97,762.573 1036.97,761.906 1036.5,760.5 Z"/></g>
<g><path style="opacity:0.141" fill="#bac1da" d="M 301.5,762.5 C 301.027,763.906 300.027,764.573 298.5,764.5C 298.973,763.094 299.973,762.427 301.5,762.5 Z"/></g>
<g><path style="opacity:0.322" fill="#9da7ca" d="M 1039.5,762.5 C 1041.15,762.66 1042.49,763.326 1043.5,764.5C 1041.62,764.771 1040.29,764.104 1039.5,762.5 Z"/></g>
<g><path style="opacity:0.502" fill="#8d99c1" d="M 65.5,760.5 C 65.5,763.833 65.5,767.167 65.5,770.5C 67.4147,770.216 69.0813,770.549 70.5,771.5C 70.1667,771.5 69.8333,771.5 69.5,771.5C 68.0267,772.071 66.36,772.071 64.5,771.5C 64.185,767.629 64.5184,763.962 65.5,760.5 Z"/></g>
<g><path style="opacity:1" fill="#717bb0" d="M 1264.5,763.5 C 1261.94,765.607 1258.94,766.941 1255.5,767.5C 1257.92,765.063 1260.92,763.73 1264.5,763.5 Z"/></g>
<g><path style="opacity:0.141" fill="#abb3d1" d="M 408.5,764.5 C 410.898,764.259 412.898,764.926 414.5,766.5C 412.102,766.741 410.102,766.074 408.5,764.5 Z"/></g>
<g><path style="opacity:0.141" fill="#b6bdd7" d="M 1386.5,765.5 C 1388.03,765.427 1389.03,766.094 1389.5,767.5C 1387.97,767.573 1386.97,766.906 1386.5,765.5 Z"/></g>
<g><path style="opacity:0.141" fill="#bdc4db" d="M 1047.5,766.5 C 1049.38,766.229 1050.71,766.896 1051.5,768.5C 1049.85,768.34 1048.51,767.674 1047.5,766.5 Z"/></g>
<g><path style="opacity:0.322" fill="#a7b1d0" d="M 1052.5,768.5 C 1057.05,769.057 1061.38,770.057 1065.5,771.5C 1060.81,771.575 1056.47,770.575 1052.5,768.5 Z"/></g>
<g><path style="opacity:0.141" fill="#b4bcd7" d="M 1255.5,767.5 C 1253.9,769.074 1251.9,769.741 1249.5,769.5C 1251.21,768.262 1253.21,767.595 1255.5,767.5 Z"/></g>
<g><path style="opacity:0.141" fill="#b8bfd9" d="M 1390.5,767.5 C 1392.55,767.402 1394.22,768.069 1395.5,769.5C 1393.45,769.598 1391.78,768.931 1390.5,767.5 Z"/></g>
<g><path style="opacity:0.141" fill="#b8bfd9" d="M 1907.5,766.5 C 1904.92,768.472 1901.92,769.472 1898.5,769.5C 1901.22,767.928 1904.22,766.928 1907.5,766.5 Z"/></g>
<g><path style="opacity:0.996" fill="#939ec4" d="M 1686.5,769.5 C 1689.39,769.194 1692.05,769.527 1694.5,770.5C 1693.88,770.611 1693.38,770.944 1693,771.5C 1690.72,770.883 1688.56,770.216 1686.5,769.5 Z"/></g>
<g><path style="opacity:0.996" fill="#9fa8ca" d="M 421.5,769.5 C 446.479,770.884 471.479,771.551 496.5,771.5C 496.5,771.833 496.5,772.167 496.5,772.5C 480.025,772.343 464.192,772.343 449,772.5C 439.702,771.849 430.535,770.849 421.5,769.5 Z"/></g>
<g><path style="opacity:0.996" fill="#9ea8ca" d="M 1237.5,771.5 C 1239.95,770.527 1242.61,770.194 1245.5,770.5C 1243.44,771.216 1241.28,771.883 1239,772.5C 1238.62,771.944 1238.12,771.611 1237.5,771.5 Z"/></g>
<g><path style="opacity:0.322" fill="#a2accc" d="M 1898.5,769.5 C 1888.48,771.013 1878.32,772.013 1868,772.5C 1866.17,772.435 1864.34,772.102 1862.5,771.5C 1874.34,770.675 1886.34,770.008 1898.5,769.5 Z"/></g>
<g><path style="opacity:0.322" fill="#a4adce" d="M 69.5,771.5 C 69.8333,771.5 70.1667,771.5 70.5,771.5C 99.841,771.35 129.174,771.684 158.5,772.5C 151.308,773.444 144.141,773.777 137,773.5C 114.402,772.838 91.9022,772.172 69.5,771.5 Z"/></g>
<g><path style="opacity:0.996" fill="#95a0c5" d="M 158.5,772.5 C 200.33,771.501 242.33,771.168 284.5,771.5C 249.431,772.17 214.264,772.836 179,773.5C 172.079,773.02 165.246,772.686 158.5,772.5 Z"/></g>
<g><path style="opacity:0.996" fill="#909bc2" d="M 496.5,772.5 C 496.5,772.167 496.5,771.833 496.5,771.5C 512.009,771.17 527.342,771.504 542.5,772.5C 542.167,772.5 541.833,772.5 541.5,772.5C 526.928,773.356 511.928,773.356 496.5,772.5 Z"/></g>
<g><path style="opacity:0.996" fill="#a9b2d0" d="M 626.5,770.5 C 626.389,771.117 626.056,771.617 625.5,772C 615.923,772.18 606.423,772.68 597,773.5C 580.469,773.442 561.969,773.108 541.5,772.5C 541.833,772.5 542.167,772.5 542.5,772.5C 570.546,772.351 598.546,771.684 626.5,770.5 Z"/></g>
<g><path style="opacity:0.996" fill="#99a3c7" d="M 1400.5,770.5 C 1414,770.947 1427.33,771.614 1440.5,772.5C 1430.65,772.973 1419.81,772.973 1408,772.5C 1405.39,771.877 1402.89,771.21 1400.5,770.5 Z"/></g>
<g><path style="opacity:1" fill="#283a86" d="M 1599.5,760.5 C 1599.33,761.492 1599.66,762.158 1600.5,762.5C 1601.7,765.969 1601.7,769.302 1600.5,772.5C 1549.5,772.667 1498.5,772.5 1447.5,772C 1497.83,771.5 1548.17,771.333 1598.5,771.5C 1598.19,767.629 1598.52,763.962 1599.5,760.5 Z"/></g>
<g><path style="opacity:0.141" fill="#c7cde1" d="M 1694.5,770.5 C 1750.49,771.383 1806.49,771.717 1862.5,771.5C 1838.67,772.167 1814.67,772.5 1790.5,772.5C 1758.32,772.723 1726.32,772.057 1694.5,770.5 Z"/></g>
<g><path style="opacity:0.141" fill="#b5bdd7" d="M 946.5,771.5 C 931.848,773.166 917.182,773.5 902.5,772.5C 917.164,772.056 931.83,771.722 946.5,771.5 Z"/></g>
<g><path style="opacity:0.141" fill="#b2bad5" d="M 1066.5,771.5 C 1123.5,772.802 1180.5,772.802 1237.5,771.5C 1233.77,772.196 1229.94,772.862 1226,773.5C 1177.72,773.486 1129.72,773.486 1082,773.5C 1076.73,772.855 1071.57,772.188 1066.5,771.5 Z"/></g>
</svg>
